<svg xmlns="http://www.w3.org/2000/svg" width="512" height="512" fill="none" viewBox="0 0 512 512">
  <circle cx="256" cy="256" r="256" fill="#fff"/>
  <path fill="url(#paint0_linear_66_38)" d="M236.086 404.214L109.773 156.311a34.687 34.687 0 012.756-35.986 34.48 34.48 0 0114.637-11.65 34.342 34.342 0 0118.545-2.27l234.09 36.257a34.4 34.4 0 0114.924 6.147 34.567 34.567 0 0110.501 12.291 34.69 34.69 0 01-.005 31.481L297.385 404.226a34.526 34.526 0 01-12.698 13.711 34.353 34.353 0 01-35.91-.006 34.545 34.545 0 01-12.691-13.717z"/>
  <defs>
    <linearGradient id="paint0_linear_66_38" x1="160.773" x2="299.465" y1="106" y2="422.995" gradientUnits="userSpaceOnUse">
      <stop stop-color="#A5F7FB"/>
      <stop offset="1" stop-color="#9061E3"/>
    </linearGradient>
  </defs>
</svg>
