<svg xmlns="http://www.w3.org/2000/svg" width="731" height="196" fill="none" viewBox="0 0 731 196">
  <path fill="#000814" d="M256.991 38.834h-23.16l51.103 140.178h24.754l51.104-140.178h-23.16l-39.523 114.169h-1.595l-39.523-114.17zM429.844 38.834h-21.426v140.178h21.426V38.834zM488.166 179.012h21.426v-53.046h30.509l28.845 53.046h24.408l-31.48-56.742c17.404-6.365 26.071-20.671 26.071-39.494 0-25.804-16.225-43.942-49.161-43.942h-50.618v140.178zm21.426-71.253V56.972h26.904c21.148 0 29.885 9.925 29.885 25.804 0 15.812-8.737 24.983-29.608 24.983h-27.181zM641.136 179.012H731v-18.207h-68.438v-42.916h62.96V99.751h-62.96v-42.71h67.606V38.833h-89.032v140.178z"/>
  <g>
    <path fill="url(#paint0_linear_43_28)" d="M80.166 183.853L2.326 31.519A21.26 21.26 0 014.023 9.406 21.22 21.22 0 0124.472.852l144.259 22.28a21.237 21.237 0 0117.994 21.003c0 3.363-.799 6.677-2.328 9.671L117.942 183.86a21.244 21.244 0 01-7.825 8.426 21.213 21.213 0 01-22.13-.004 21.242 21.242 0 01-7.82-8.429z"/>
    <path fill="url(#paint1_linear_43_28)" d="M123.583 149.956L6.911 69.555c-11.823-8.148-7.804-25.112 6.94-29.101l124-33.623a17.576 17.576 0 0115.925 2.057 17.554 17.554 0 017.592 14.134l-7.349 114.018c-.872 13.533-18.613 21.064-30.436 12.916z"/>
  </g>
  <defs>
    <linearGradient id="paint0_linear_43_28" x1="93.363" x2="93.363" y1=".603" y2="195.397" gradientUnits="userSpaceOnUse">
      <stop stop-color="#003566"/>
      <stop offset="1" stop-color="#001D3D"/>
    </linearGradient>
    <linearGradient id="paint1_linear_43_28" x1="80.684" x2="80.684" y1="5.79" y2="153.326" gradientUnits="userSpaceOnUse">
      <stop stop-color="#FFD60A"/>
      <stop offset="1" stop-color="#FFC300"/>
    </linearGradient>
  </defs>
</svg>
