<svg xmlns="http://www.w3.org/2000/svg" width="512" height="512" fill="none" viewBox="0 0 512 512">
  <circle cx="256" cy="256" r="256" fill="#333"/>
  <path fill="#fff" d="M340.212 222.79a46.35 46.35 0 00-10.77 17.07 46.162 46.162 0 00-2.483 20.02l-.228-.228a54.995 54.995 0 01-3.156 23.516 54.994 54.994 0 01-32.792 32.772 55.101 55.101 0 01-23.53 3.153l.228.228a46.621 46.621 0 00-27.457 5.951 46.462 46.462 0 00-19.045 20.628 46.584 46.584 0 00-3.725 27.834 46.572 46.572 0 0012.975 24.908 46.573 46.573 0 0024.936 12.941 46.621 46.621 0 0027.838-3.748 46.475 46.475 0 0020.628-19.058 46.427 46.427 0 005.93-27.44l.241.227a55.005 55.005 0 0135.948-56.287 55.081 55.081 0 0123.529-3.153l-.24-.228a46.707 46.707 0 0022.82-3.71 46.532 46.532 0 0018.208-14.246 46.442 46.442 0 009.11-21.236 46.565 46.565 0 00-2.255-22.996 46.396 46.396 0 00-13.064-19.07 46.514 46.514 0 00-43.727-9.65 46.545 46.545 0 00-19.881 11.802h-.038z"/>
  <path fill="#fff" d="M249.098 296.295l-.24-.228a46.017 46.017 0 0020.01-2.427 46.046 46.046 0 0017.04-10.771 45.862 45.862 0 0010.77-17.029 45.852 45.852 0 002.452-20.013l.24.228a54.936 54.936 0 013.148-23.477 54.89 54.89 0 0132.714-32.718 54.92 54.92 0 0123.473-3.148l-.24-.227a46.513 46.513 0 0027.405-5.917 46.47 46.47 0 0019.012-20.594 46.53 46.53 0 003.729-27.787 46.553 46.553 0 00-12.919-24.88 46.498 46.498 0 00-52.661-9.191 46.47 46.47 0 00-20.592 19.014 46.54 46.54 0 00-5.915 27.408l-.228-.24a55.012 55.012 0 01-3.135 23.489 55.252 55.252 0 01-12.742 19.975 55.133 55.133 0 01-19.972 12.743 54.996 54.996 0 01-23.486 3.135l.227.24a46.021 46.021 0 00-20.01 2.428 46.042 46.042 0 00-17.039 10.771 46.099 46.099 0 00-10.77 17.029 46.041 46.041 0 00-2.452 20.012l-.228-.227a54.918 54.918 0 01-3.148 23.476 54.873 54.873 0 01-32.713 32.718 54.91 54.91 0 01-23.474 3.148l.227.228a46.528 46.528 0 00-27.405 5.916 46.53 46.53 0 00-22.74 48.382 46.51 46.51 0 0012.919 24.88 46.547 46.547 0 0024.876 12.92 46.517 46.517 0 0048.376-22.743 46.525 46.525 0 005.916-27.409l.24.228a54.936 54.936 0 013.148-23.477 54.877 54.877 0 0132.714-32.717 54.905 54.905 0 0123.473-3.148zM163.748 269.984a46.426 46.426 0 0010.496-17.073 47.484 47.484 0 002.408-20.024l.235.228a56.422 56.422 0 013.074-23.532c2.68-7.523 6.928-14.35 12.46-20.011 5.52-5.661 12.175-10.018 19.51-12.766a52.464 52.464 0 0122.943-3.141l-.234-.228c9.298.899 18.646-1.178 26.759-5.928 8.112-4.749 14.595-11.956 18.571-20.631 3.977-8.663 5.236-18.39 3.631-27.826-1.605-9.435-6.014-18.136-12.62-24.912-6.607-6.776-15.09-11.298-24.289-12.944a44.467 44.467 0 00-27.13 3.723c-8.458 4.079-15.484 10.728-20.115 19.049a47.545 47.545 0 00-5.779 27.445l-.222-.228a56.339 56.339 0 01-3.075 23.52 55.159 55.159 0 01-12.447 20.011c-5.52 5.661-12.175 10.018-19.51 12.766a52.41 52.41 0 01-22.931 3.154l.222.228a44.35 44.35 0 00-22.239 3.724c-6.989 3.141-13.089 8.042-17.745 14.235-4.643 6.206-7.693 13.514-8.866 21.253a47.734 47.734 0 002.198 23c2.618 7.345 6.99 13.906 12.731 19.061 5.742 5.167 12.657 8.751 20.103 10.436a44.212 44.212 0 0022.511-.785 45.13 45.13 0 0019.375-11.804h-.025z"/>
</svg>
