<svg xmlns="http://www.w3.org/2000/svg" width="127" height="47" fill="none" viewBox="0 0 127 47">
  <path fill="#111" d="M64.085 10.818h-5.203L68.1 37h5.855l9.23-26.182H77.97l-6.801 20.608h-.269l-6.814-20.608zM86.429 37h4.627V17.364H86.43V37zm2.326-22.423c1.47 0 2.672-1.125 2.672-2.506 0-1.393-1.202-2.518-2.672-2.518-1.483 0-2.684 1.125-2.684 2.518 0 1.38 1.201 2.506 2.684 2.506zM95.815 37h4.628V25.456c0-2.493 1.879-4.257 4.423-4.257.78 0 1.752.14 2.148.268V17.21c-.422-.076-1.15-.128-1.662-.128-2.25 0-4.129 1.279-4.845 3.554h-.204v-3.272h-4.488V37zM117.973 37.384c4.577 0 7.722-2.238 8.54-5.651l-4.321-.486c-.626 1.662-2.16 2.532-4.155 2.532-2.991 0-4.973-1.97-5.011-5.332h13.679V27.03c0-6.891-4.142-9.921-8.975-9.921-5.625 0-9.294 4.13-9.294 10.189 0 6.162 3.618 10.087 9.537 10.087zm-4.934-12.056c.14-2.505 1.994-4.615 4.755-4.615 2.659 0 4.449 1.943 4.475 4.615h-9.23z"/>
  <g>
    <path fill="url(#paint0_linear_71_12)" d="M19.026 43.613L.552 7.358a5.072 5.072 0 01.403-5.263A5.023 5.023 0 015.808.059l34.236 5.303a5.03 5.03 0 013.719 2.696 5.074 5.074 0 010 4.604L27.99 43.615a5.05 5.05 0 01-1.857 2.005 5.027 5.027 0 01-7.108-2.007z"/>
  </g>
  <defs>
    <linearGradient id="paint0_linear_71_12" x1="8.011" x2="28.293" y1="0" y2="46.36" gradientUnits="userSpaceOnUse">
      <stop stop-color="#A5F7FB"/>
      <stop offset="1" stop-color="#9061E3"/>
    </linearGradient>
  </defs>
</svg>
