<svg xmlns="http://www.w3.org/2000/svg" width="698" height="200" fill="none" viewBox="0 0 698 200">
  <path fill="#333" d="M291.495 187.7L235.274 13.29h38.48l25.986 83.707 13.743 54.721h.75l13.243-54.72 25.986-83.707h37.231L333.973 187.7h-42.478zM430.02 42.526c-7.496 0-12.993-1.666-16.491-4.998-3.332-3.498-4.998-7.912-4.998-13.243v-5.497c0-5.33 1.666-9.662 4.998-12.993 3.498-3.498 8.995-5.247 16.491-5.247s12.91 1.749 16.242 5.247c3.498 3.331 5.247 7.662 5.247 12.993v5.497c0 5.33-1.749 9.745-5.247 13.243-3.332 3.332-8.746 4.998-16.242 4.998zm-18.49 13.992h36.98V187.7h-36.98V56.518zM483.026 187.7V56.518h36.98v28.485h1.25a38.897 38.897 0 013.498-10.494c1.666-3.498 3.831-6.58 6.496-9.245 2.832-2.666 6.164-4.748 9.995-6.247 3.831-1.666 8.329-2.499 13.493-2.499h6.497V91h-9.246c-10.827 0-18.906 1.416-24.237 4.248-5.164 2.832-7.746 8.079-7.746 15.742v76.71h-36.98zM637.548 190.698c-9.994 0-18.907-1.582-26.736-4.747-7.829-3.332-14.492-7.913-19.989-13.743-5.331-5.997-9.412-13.243-12.244-21.739-2.665-8.495-3.998-17.99-3.998-28.485 0-10.328 1.333-19.656 3.998-27.985 2.665-8.496 6.58-15.742 11.744-21.739 5.331-5.997 11.827-10.578 19.49-13.743 7.662-3.331 16.408-4.997 26.236-4.997 10.828 0 20.073 1.832 27.736 5.497 7.829 3.665 14.159 8.579 18.99 14.742 4.997 6.164 8.578 13.327 10.744 21.489 2.332 7.996 3.498 16.408 3.498 25.237v10.994h-84.206v1.999c0 8.662 2.332 15.575 6.997 20.739 4.664 4.998 11.993 7.496 21.988 7.496 7.663 0 13.909-1.499 18.74-4.497 4.831-3.165 9.329-6.913 13.493-11.245l18.491 22.988c-5.831 6.83-13.493 12.161-22.988 15.992-9.329 3.831-19.99 5.747-31.984 5.747zm-.749-109.942c-7.496 0-13.41 2.498-17.741 7.496-4.165 4.83-6.247 11.327-6.247 19.489v1.999h45.976v-2.248c0-7.996-1.832-14.41-5.497-19.24-3.498-4.998-8.995-7.496-16.491-7.496z"/>
  <g>
    <path fill="#333" d="M148.296 89.199a27.107 27.107 0 00-6.298 9.981 26.995 26.995 0 00-1.452 11.707l-.133-.133a32.149 32.149 0 01-1.845 13.751 32.158 32.158 0 01-19.176 19.163 32.213 32.213 0 01-13.759 1.844l.134.133a27.262 27.262 0 00-16.056 3.481 27.162 27.162 0 00-11.137 12.062 27.239 27.239 0 00-2.178 16.276 27.238 27.238 0 007.587 14.565 27.234 27.234 0 0014.582 7.567c5.52.963 11.203.193 16.278-2.191a27.187 27.187 0 0012.063-11.145 27.161 27.161 0 003.467-16.046l.141.134a32.149 32.149 0 011.845-13.751 32.166 32.166 0 0119.175-19.164 32.217 32.217 0 0113.759-1.843l-.14-.134a27.31 27.31 0 0013.344-2.169 27.21 27.21 0 0010.647-8.331 27.155 27.155 0 005.327-12.417 27.224 27.224 0 00-1.318-13.447 27.14 27.14 0 00-7.639-11.152 27.195 27.195 0 00-25.57-5.642 27.203 27.203 0 00-11.625 6.9h-.023z"/>
    <path fill="#333" d="M95.11 129.57l-.14-.133a26.77 26.77 0 0011.648-1.413 26.681 26.681 0 0016.189-16.183 26.68 26.68 0 001.427-11.649l.14.132a31.99 31.99 0 019.25-25.294 31.964 31.964 0 0125.29-9.25l-.14-.133a27.072 27.072 0 0015.953-3.444 27.042 27.042 0 0011.067-11.988 27.077 27.077 0 00-5.349-30.659 27.071 27.071 0 00-42.642 5.718 27.102 27.102 0 00-3.444 15.955l-.132-.14a32.02 32.02 0 01-1.825 13.674 32.164 32.164 0 01-7.417 11.628 32.098 32.098 0 01-11.626 7.418 32.011 32.011 0 01-13.672 1.825l.132.14a26.788 26.788 0 00-11.648 1.412 26.808 26.808 0 00-9.92 6.27 26.843 26.843 0 00-6.269 9.913 26.803 26.803 0 00-1.427 11.65l-.133-.132a31.978 31.978 0 01-20.875 32.712 31.967 31.967 0 01-13.665 1.832l.133.133a27.08 27.08 0 00-15.953 3.444 27.086 27.086 0 00-13.238 28.164 27.078 27.078 0 007.52 14.483c3.944 3.937 9 6.564 14.482 7.521 5.489.956 11.133.198 16.173-2.171a27.045 27.045 0 0011.987-11.069 27.08 27.08 0 003.444-15.954l.14.132a31.978 31.978 0 0120.875-32.712 31.967 31.967 0 0113.665-1.832zM45.209 112.8a27.153 27.153 0 006.129-9.984 27.802 27.802 0 001.406-11.709l.137.134a33.035 33.035 0 011.795-13.76 32.184 32.184 0 017.275-11.702 31.208 31.208 0 0111.393-7.465 30.607 30.607 0 0113.397-1.837l-.137-.133a25.934 25.934 0 0015.625-3.467c4.737-2.777 8.523-6.99 10.844-12.064a27.887 27.887 0 002.12-16.271c-.937-5.518-3.511-10.606-7.369-14.568-3.857-3.962-8.81-6.606-14.183-7.569A25.93 25.93 0 0077.8 4.583c-4.94 2.384-9.042 6.273-11.746 11.138a27.84 27.84 0 00-3.374 16.05l-.13-.134a32.988 32.988 0 01-1.795 13.753 32.265 32.265 0 01-7.269 11.702 31.207 31.207 0 01-11.392 7.465 30.564 30.564 0 01-13.39 1.844l.13.133a25.868 25.868 0 00-12.986 2.178 26.651 26.651 0 00-10.362 8.324A27.691 27.691 0 00.31 89.463a27.952 27.952 0 001.284 13.45c1.528 4.295 4.08 8.132 7.434 11.146a26.178 26.178 0 0011.738 6.102 25.77 25.77 0 0013.145-.459 26.335 26.335 0 0011.313-6.902h-.014z"/>
  </g>
</svg>
