<svg xmlns="http://www.w3.org/2000/svg" width="698" height="186" fill="none" viewBox="0 0 698 186">
  <path fill="#002344" d="M245.389 36.505h-22.114l48.796 133.85h23.637l48.796-133.85H322.39L284.651 145.52h-1.523L245.389 36.505zM410.439 36.505H389.98v133.85h20.459V36.505zM466.128 170.355h20.459v-50.651h29.132l27.543 50.651h23.306l-30.059-54.181c16.618-6.078 24.894-19.737 24.894-37.71 0-24.64-15.493-41.96-46.942-41.96h-48.333v133.851zm20.459-68.036V53.824h25.689c20.194 0 28.536 9.477 28.536 24.64 0 15.097-8.342 23.855-28.271 23.855h-25.954zM612.193 170.355H698V152.97h-65.348v-40.978h60.117v-17.32h-60.117V53.89h64.553V36.505h-85.012v133.85z"/>
  <path fill="#8ECAE6" d="M76.523 174.977L2.22 29.52A20.306 20.306 0 013.841 8.405a20.272 20.272 0 018.61-6.835A20.249 20.249 0 0123.36.237l137.703 21.275c3.17.49 6.179 1.726 8.779 3.606a20.288 20.288 0 018.397 16.448 20.321 20.321 0 01-2.223 9.235l-63.434 124.183a20.284 20.284 0 01-7.469 8.045 20.248 20.248 0 01-21.124-.003 20.282 20.282 0 01-7.466-8.049z"/>
  <path fill="#219EBC" d="M117.859 142.803L6.591 66.07C-4.685 58.294-.852 42.104 13.21 38.297L131.467 6.21a16.75 16.75 0 0120.439 7.831 16.728 16.728 0 011.988 7.62l-7.008 108.816c-.831 12.916-17.751 20.102-29.027 12.327z"/>
</svg>
