<svg xmlns="http://www.w3.org/2000/svg" width="508" height="141" fill="none" viewBox="0 0 508 141">
  <path fill="#333" d="M173.951 23.82a3 3 0 00-2.839-2.03h-10.675c-2.078 0-3.526 2.062-2.823 4.017l35.548 98.78a2.999 2.999 0 002.822 1.985h14.048a3.001 3.001 0 002.823-1.985l35.547-98.78c.704-1.955-.745-4.016-2.823-4.016h-10.675a3 3 0 00-2.839 2.03l-28.278 82.752a.821.821 0 01-1.557 0l-28.279-82.752zM295.795 24.79a3 3 0 00-3-3h-9.809a3 3 0 00-3 3v98.782a3 3 0 003 3h9.809a3 3 0 003-3V24.791zM333.826 123.572a3 3 0 003 3h9.809a3 3 0 003-3V89.921a3 3 0 013-3h18.489c.63 0 1.209.346 1.507.901l19.951 37.168a2.999 2.999 0 002.643 1.582h11.151c2.28 0 3.726-2.442 2.632-4.441l-19.127-34.926c-.88-1.606-.119-3.608 1.524-4.416 10.709-5.268 16.044-15.301 16.044-28.152 0-19.288-11.972-32.846-36.274-32.846h-34.349a3 3 0 00-3 3v98.781zm18.809-50.26a3 3 0 01-3-3V38.348a3 3 0 013-3h16.851c15.605 0 22.051 7.419 22.051 19.288 0 11.819-6.446 18.674-21.846 18.674h-17.056zM441.694 123.572a3 3 0 003 3H505a3 3 0 003-3v-7.61a3 3 0 00-3-3h-44.497a3 3 0 01-3-3V83.883a3 3 0 013-3h40.455a3 3 0 003-3v-7.558a3 3 0 00-3-3h-40.455a3 3 0 01-3-3V38.4a3 3 0 013-3h43.883a3 3 0 003-3v-7.61a3 3 0 00-3-3h-59.692a3 3 0 00-3 3v98.782z"/>
  <path fill="url(#paint0_linear_65_37)" d="M57.53 131.877L1.669 22.249A15.337 15.337 0 012.887 6.335a15.247 15.247 0 016.474-5.152A15.188 15.188 0 0117.56.18l103.526 16.034c2.383.37 4.645 1.3 6.6 2.718a15.28 15.28 0 014.644 5.436 15.333 15.333 0 01-.002 13.921l-47.69 93.594a15.272 15.272 0 01-5.615 6.064 15.2 15.2 0 01-15.882-.003 15.274 15.274 0 01-5.612-6.066z"/>
  <defs>
    <linearGradient id="paint0_linear_65_37" x1="24.223" x2="85.554" y1="0" y2="140.185" gradientUnits="userSpaceOnUse">
      <stop stop-color="#A5F7FB"/>
      <stop offset="1" stop-color="#9061E3"/>
    </linearGradient>
  </defs>
</svg>
